<mxfile host="app.diagrams.net" agent="Mozilla/5.0 (Windows NT 10.0; Win64; x64) AppleWebKit/537.36 (KHTML, like Gecko) Chrome/131.0.0.0 Safari/537.36" version="25.0.1">
  <diagram name="Page-1" id="IWK_YZqnmYgPwzLuM5sE">
    <mxGraphModel dx="1348" dy="618" grid="1" gridSize="10" guides="1" tooltips="1" connect="1" arrows="1" fold="1" page="1" pageScale="1" pageWidth="827" pageHeight="1169" math="0" shadow="0">
      <root>
        <mxCell id="0" />
        <mxCell id="1" parent="0" />
        <mxCell id="Poi-JJtiiJ44U1Zy0QEv-7" style="edgeStyle=orthogonalEdgeStyle;rounded=0;orthogonalLoop=1;jettySize=auto;html=1;entryX=0;entryY=0.5;entryDx=0;entryDy=0;" edge="1" parent="1" source="Poi-JJtiiJ44U1Zy0QEv-1" target="Poi-JJtiiJ44U1Zy0QEv-3">
          <mxGeometry relative="1" as="geometry" />
        </mxCell>
        <mxCell id="Poi-JJtiiJ44U1Zy0QEv-1" value="Построить дом" style="ellipse;whiteSpace=wrap;html=1;aspect=fixed;" vertex="1" parent="1">
          <mxGeometry x="280" y="260" width="80" height="80" as="geometry" />
        </mxCell>
        <mxCell id="Poi-JJtiiJ44U1Zy0QEv-5" style="edgeStyle=orthogonalEdgeStyle;rounded=0;orthogonalLoop=1;jettySize=auto;html=1;" edge="1" parent="1" source="Poi-JJtiiJ44U1Zy0QEv-2" target="Poi-JJtiiJ44U1Zy0QEv-1">
          <mxGeometry relative="1" as="geometry" />
        </mxCell>
        <mxCell id="Poi-JJtiiJ44U1Zy0QEv-2" value="&lt;div&gt;Строительный&lt;/div&gt;&lt;div&gt;магазин&lt;/div&gt;" style="rounded=0;whiteSpace=wrap;html=1;" vertex="1" parent="1">
          <mxGeometry x="30" y="270" width="120" height="60" as="geometry" />
        </mxCell>
        <mxCell id="Poi-JJtiiJ44U1Zy0QEv-3" value="Заказчик" style="rounded=0;whiteSpace=wrap;html=1;" vertex="1" parent="1">
          <mxGeometry x="440" y="270" width="120" height="60" as="geometry" />
        </mxCell>
        <mxCell id="Poi-JJtiiJ44U1Zy0QEv-9" style="edgeStyle=orthogonalEdgeStyle;rounded=0;orthogonalLoop=1;jettySize=auto;html=1;entryX=0.5;entryY=0;entryDx=0;entryDy=0;" edge="1" parent="1" source="Poi-JJtiiJ44U1Zy0QEv-4" target="Poi-JJtiiJ44U1Zy0QEv-1">
          <mxGeometry relative="1" as="geometry" />
        </mxCell>
        <mxCell id="Poi-JJtiiJ44U1Zy0QEv-10" value="Проект дома" style="edgeLabel;html=1;align=center;verticalAlign=middle;resizable=0;points=[];" vertex="1" connectable="0" parent="Poi-JJtiiJ44U1Zy0QEv-9">
          <mxGeometry x="0.1365" y="2" relative="1" as="geometry">
            <mxPoint y="-47" as="offset" />
          </mxGeometry>
        </mxCell>
        <mxCell id="Poi-JJtiiJ44U1Zy0QEv-4" value="Архитектор" style="rounded=0;whiteSpace=wrap;html=1;" vertex="1" parent="1">
          <mxGeometry x="380" y="120" width="120" height="60" as="geometry" />
        </mxCell>
        <mxCell id="Poi-JJtiiJ44U1Zy0QEv-6" value="&lt;div&gt;Список&lt;/div&gt;&lt;div&gt;материалов&lt;/div&gt;" style="text;html=1;align=center;verticalAlign=middle;resizable=0;points=[];autosize=1;strokeColor=none;fillColor=none;" vertex="1" parent="1">
          <mxGeometry x="175" y="260" width="90" height="40" as="geometry" />
        </mxCell>
        <mxCell id="Poi-JJtiiJ44U1Zy0QEv-8" value="Акт&#xa;приёмки" style="text;whiteSpace=wrap;" vertex="1" parent="1">
          <mxGeometry x="380" y="260" width="80" height="50" as="geometry" />
        </mxCell>
        <mxCell id="Poi-JJtiiJ44U1Zy0QEv-12" value="&lt;div&gt;Согласование&lt;/div&gt;&lt;div&gt;проекта&lt;/div&gt;" style="ellipse;whiteSpace=wrap;html=1;aspect=fixed;" vertex="1" parent="1">
          <mxGeometry x="90" y="540" width="80" height="80" as="geometry" />
        </mxCell>
        <mxCell id="Poi-JJtiiJ44U1Zy0QEv-17" style="edgeStyle=orthogonalEdgeStyle;rounded=0;orthogonalLoop=1;jettySize=auto;html=1;entryX=0;entryY=0.5;entryDx=0;entryDy=0;" edge="1" parent="1" source="Poi-JJtiiJ44U1Zy0QEv-13" target="Poi-JJtiiJ44U1Zy0QEv-15">
          <mxGeometry relative="1" as="geometry" />
        </mxCell>
        <mxCell id="Poi-JJtiiJ44U1Zy0QEv-30" style="edgeStyle=orthogonalEdgeStyle;rounded=0;orthogonalLoop=1;jettySize=auto;html=1;" edge="1" parent="1" source="Poi-JJtiiJ44U1Zy0QEv-13" target="Poi-JJtiiJ44U1Zy0QEv-29">
          <mxGeometry relative="1" as="geometry">
            <mxPoint x="430" y="550" as="targetPoint" />
            <Array as="points">
              <mxPoint x="300" y="557" />
            </Array>
          </mxGeometry>
        </mxCell>
        <mxCell id="Poi-JJtiiJ44U1Zy0QEv-31" style="edgeStyle=orthogonalEdgeStyle;rounded=0;orthogonalLoop=1;jettySize=auto;html=1;exitX=1;exitY=0.5;exitDx=0;exitDy=0;" edge="1" parent="1" source="Poi-JJtiiJ44U1Zy0QEv-13" target="Poi-JJtiiJ44U1Zy0QEv-29">
          <mxGeometry relative="1" as="geometry">
            <Array as="points">
              <mxPoint x="452" y="660" />
            </Array>
          </mxGeometry>
        </mxCell>
        <mxCell id="Poi-JJtiiJ44U1Zy0QEv-13" value="&lt;div&gt;Выполнение&lt;/div&gt;&lt;div&gt;строительных работ&lt;/div&gt;" style="ellipse;whiteSpace=wrap;html=1;aspect=fixed;" vertex="1" parent="1">
          <mxGeometry x="260" y="620" width="80" height="80" as="geometry" />
        </mxCell>
        <mxCell id="Poi-JJtiiJ44U1Zy0QEv-20" style="edgeStyle=orthogonalEdgeStyle;rounded=0;orthogonalLoop=1;jettySize=auto;html=1;" edge="1" parent="1" source="Poi-JJtiiJ44U1Zy0QEv-15">
          <mxGeometry relative="1" as="geometry">
            <mxPoint x="700" y="740" as="targetPoint" />
          </mxGeometry>
        </mxCell>
        <mxCell id="Poi-JJtiiJ44U1Zy0QEv-15" value="Сдача работ" style="ellipse;whiteSpace=wrap;html=1;aspect=fixed;" vertex="1" parent="1">
          <mxGeometry x="443" y="700" width="80" height="80" as="geometry" />
        </mxCell>
        <mxCell id="Poi-JJtiiJ44U1Zy0QEv-16" style="edgeStyle=orthogonalEdgeStyle;rounded=0;orthogonalLoop=1;jettySize=auto;html=1;entryX=-0.007;entryY=0.41;entryDx=0;entryDy=0;entryPerimeter=0;" edge="1" parent="1" source="Poi-JJtiiJ44U1Zy0QEv-12" target="Poi-JJtiiJ44U1Zy0QEv-13">
          <mxGeometry relative="1" as="geometry" />
        </mxCell>
        <mxCell id="Poi-JJtiiJ44U1Zy0QEv-18" value="" style="endArrow=classic;html=1;rounded=0;entryX=0;entryY=1;entryDx=0;entryDy=0;" edge="1" parent="1" target="Poi-JJtiiJ44U1Zy0QEv-13">
          <mxGeometry width="50" height="50" relative="1" as="geometry">
            <mxPoint x="-1.8823601217830883" y="688" as="sourcePoint" />
            <mxPoint x="350" y="620" as="targetPoint" />
          </mxGeometry>
        </mxCell>
        <mxCell id="Poi-JJtiiJ44U1Zy0QEv-19" value="&lt;div&gt;Список&lt;/div&gt;&lt;div&gt;материалов&lt;/div&gt;" style="text;html=1;align=center;verticalAlign=middle;resizable=0;points=[];autosize=1;strokeColor=none;fillColor=none;" vertex="1" parent="1">
          <mxGeometry x="70" y="690" width="90" height="40" as="geometry" />
        </mxCell>
        <mxCell id="Poi-JJtiiJ44U1Zy0QEv-21" value="Акт&#xa;приёмки" style="text;whiteSpace=wrap;" vertex="1" parent="1">
          <mxGeometry x="580" y="700" width="80" height="50" as="geometry" />
        </mxCell>
        <mxCell id="Poi-JJtiiJ44U1Zy0QEv-22" value="&lt;div&gt;Утверждённый&lt;/div&gt;&lt;div&gt;проект&lt;/div&gt;" style="text;html=1;align=center;verticalAlign=middle;resizable=0;points=[];autosize=1;strokeColor=none;fillColor=none;" vertex="1" parent="1">
          <mxGeometry x="190" y="560" width="110" height="40" as="geometry" />
        </mxCell>
        <mxCell id="Poi-JJtiiJ44U1Zy0QEv-23" value="Заказчик" style="rounded=0;whiteSpace=wrap;html=1;" vertex="1" parent="1">
          <mxGeometry x="260" y="480" width="80" height="40" as="geometry" />
        </mxCell>
        <mxCell id="Poi-JJtiiJ44U1Zy0QEv-24" value="" style="endArrow=classic;html=1;rounded=0;exitX=0.5;exitY=0;exitDx=0;exitDy=0;entryX=0.5;entryY=1;entryDx=0;entryDy=0;" edge="1" parent="1" source="Poi-JJtiiJ44U1Zy0QEv-13" target="Poi-JJtiiJ44U1Zy0QEv-23">
          <mxGeometry width="50" height="50" relative="1" as="geometry">
            <mxPoint x="290" y="500" as="sourcePoint" />
            <mxPoint x="340" y="450" as="targetPoint" />
          </mxGeometry>
        </mxCell>
        <mxCell id="Poi-JJtiiJ44U1Zy0QEv-25" style="edgeStyle=orthogonalEdgeStyle;rounded=0;orthogonalLoop=1;jettySize=auto;html=1;entryX=0.757;entryY=0.127;entryDx=0;entryDy=0;entryPerimeter=0;" edge="1" parent="1" source="Poi-JJtiiJ44U1Zy0QEv-23" target="Poi-JJtiiJ44U1Zy0QEv-12">
          <mxGeometry relative="1" as="geometry" />
        </mxCell>
        <mxCell id="Poi-JJtiiJ44U1Zy0QEv-26" value="Список требований" style="text;html=1;align=center;verticalAlign=middle;resizable=0;points=[];autosize=1;strokeColor=none;fillColor=none;" vertex="1" parent="1">
          <mxGeometry x="135" y="470" width="130" height="30" as="geometry" />
        </mxCell>
        <mxCell id="Poi-JJtiiJ44U1Zy0QEv-27" value="" style="endArrow=classic;html=1;rounded=0;entryX=0.5;entryY=0;entryDx=0;entryDy=0;" edge="1" parent="1" target="Poi-JJtiiJ44U1Zy0QEv-12">
          <mxGeometry width="50" height="50" relative="1" as="geometry">
            <mxPoint x="130" y="430" as="sourcePoint" />
            <mxPoint x="260" y="450" as="targetPoint" />
          </mxGeometry>
        </mxCell>
        <mxCell id="Poi-JJtiiJ44U1Zy0QEv-28" value="&lt;div&gt;Проект&lt;/div&gt;&lt;div&gt;дома&lt;/div&gt;" style="text;html=1;align=center;verticalAlign=middle;resizable=0;points=[];autosize=1;strokeColor=none;fillColor=none;" vertex="1" parent="1">
          <mxGeometry x="120" y="430" width="60" height="40" as="geometry" />
        </mxCell>
        <mxCell id="Poi-JJtiiJ44U1Zy0QEv-29" value="" style="sketch=0;outlineConnect=0;fontColor=#232F3E;gradientColor=none;fillColor=#232F3D;strokeColor=none;dashed=0;verticalLabelPosition=bottom;verticalAlign=top;align=center;html=1;fontSize=12;fontStyle=0;aspect=fixed;pointerEvents=1;shape=mxgraph.aws4.document;" vertex="1" parent="1">
          <mxGeometry x="440" y="540" width="24.12" height="33" as="geometry" />
        </mxCell>
        <mxCell id="Poi-JJtiiJ44U1Zy0QEv-33" value="Документация" style="text;html=1;align=center;verticalAlign=middle;resizable=0;points=[];autosize=1;strokeColor=none;fillColor=none;" vertex="1" parent="1">
          <mxGeometry x="402.06" y="510" width="100" height="30" as="geometry" />
        </mxCell>
        <mxCell id="Poi-JJtiiJ44U1Zy0QEv-34" value="&lt;div&gt;Чеки на&lt;/div&gt;&lt;div&gt;материалы&lt;/div&gt;" style="text;html=1;align=center;verticalAlign=middle;resizable=0;points=[];autosize=1;strokeColor=none;fillColor=none;" vertex="1" parent="1">
          <mxGeometry x="290" y="580" width="90" height="40" as="geometry" />
        </mxCell>
        <mxCell id="Poi-JJtiiJ44U1Zy0QEv-35" value="&lt;div&gt;Акты&lt;/div&gt;&lt;div&gt;выполненных&lt;/div&gt;&lt;div&gt;работ&lt;/div&gt;" style="text;html=1;align=center;verticalAlign=middle;resizable=0;points=[];autosize=1;strokeColor=none;fillColor=none;" vertex="1" parent="1">
          <mxGeometry x="440" y="610" width="100" height="60" as="geometry" />
        </mxCell>
        <mxCell id="Poi-JJtiiJ44U1Zy0QEv-37" value="&lt;div&gt;Список&lt;/div&gt;&lt;div&gt;материалов&lt;/div&gt;" style="text;html=1;align=center;verticalAlign=middle;resizable=0;points=[];autosize=1;strokeColor=none;fillColor=none;" vertex="1" parent="1">
          <mxGeometry x="45" y="1440" width="90" height="40" as="geometry" />
        </mxCell>
        <mxCell id="Poi-JJtiiJ44U1Zy0QEv-38" style="edgeStyle=orthogonalEdgeStyle;rounded=0;orthogonalLoop=1;jettySize=auto;html=1;entryX=0;entryY=0.5;entryDx=0;entryDy=0;" edge="1" parent="1" target="Poi-JJtiiJ44U1Zy0QEv-44">
          <mxGeometry relative="1" as="geometry">
            <mxPoint x="-40" y="1278.5" as="sourcePoint" />
            <mxPoint x="260" y="1279.5" as="targetPoint" />
            <Array as="points">
              <mxPoint x="111" y="1279" />
              <mxPoint x="111" y="1280" />
            </Array>
          </mxGeometry>
        </mxCell>
        <mxCell id="Poi-JJtiiJ44U1Zy0QEv-39" value="&lt;div&gt;Утверждённый&lt;/div&gt;&lt;div&gt;проект&lt;/div&gt;" style="text;html=1;align=center;verticalAlign=middle;resizable=0;points=[];autosize=1;strokeColor=none;fillColor=none;" vertex="1" parent="1">
          <mxGeometry x="40" y="1280" width="110" height="40" as="geometry" />
        </mxCell>
        <mxCell id="Poi-JJtiiJ44U1Zy0QEv-41" value="&lt;div&gt;Чеки на&lt;/div&gt;&lt;div&gt;материалы&lt;/div&gt;" style="text;html=1;align=center;verticalAlign=middle;resizable=0;points=[];autosize=1;strokeColor=none;fillColor=none;" vertex="1" parent="1">
          <mxGeometry x="580" y="1070" width="90" height="40" as="geometry" />
        </mxCell>
        <mxCell id="Poi-JJtiiJ44U1Zy0QEv-43" value="&lt;div&gt;Акты&lt;/div&gt;&lt;div&gt;выполненных&lt;/div&gt;&lt;div&gt;работ&lt;/div&gt;" style="text;html=1;align=center;verticalAlign=middle;resizable=0;points=[];autosize=1;strokeColor=none;fillColor=none;" vertex="1" parent="1">
          <mxGeometry x="847" y="1370" width="100" height="60" as="geometry" />
        </mxCell>
        <mxCell id="Poi-JJtiiJ44U1Zy0QEv-65" style="edgeStyle=orthogonalEdgeStyle;rounded=0;orthogonalLoop=1;jettySize=auto;html=1;" edge="1" parent="1" source="Poi-JJtiiJ44U1Zy0QEv-44">
          <mxGeometry relative="1" as="geometry">
            <mxPoint x="940" y="1360" as="targetPoint" />
            <Array as="points">
              <mxPoint x="830" y="1280" />
              <mxPoint x="830" y="1360" />
            </Array>
          </mxGeometry>
        </mxCell>
        <mxCell id="Poi-JJtiiJ44U1Zy0QEv-66" style="edgeStyle=orthogonalEdgeStyle;rounded=0;orthogonalLoop=1;jettySize=auto;html=1;" edge="1" parent="1" source="Poi-JJtiiJ44U1Zy0QEv-44">
          <mxGeometry relative="1" as="geometry">
            <mxPoint x="590" y="1040" as="targetPoint" />
            <Array as="points">
              <mxPoint x="374" y="1170" />
              <mxPoint x="591" y="1170" />
              <mxPoint x="591" y="1050" />
              <mxPoint x="590" y="1050" />
            </Array>
          </mxGeometry>
        </mxCell>
        <mxCell id="Poi-JJtiiJ44U1Zy0QEv-44" value="" style="ellipse;whiteSpace=wrap;html=1;aspect=fixed;" vertex="1" parent="1">
          <mxGeometry x="334" y="1240" width="80" height="80" as="geometry" />
        </mxCell>
        <mxCell id="Poi-JJtiiJ44U1Zy0QEv-62" style="edgeStyle=orthogonalEdgeStyle;rounded=0;orthogonalLoop=1;jettySize=auto;html=1;" edge="1" parent="1" source="Poi-JJtiiJ44U1Zy0QEv-45">
          <mxGeometry relative="1" as="geometry">
            <mxPoint x="940" y="1360" as="targetPoint" />
            <Array as="points">
              <mxPoint x="830" y="1520" />
              <mxPoint x="830" y="1360" />
            </Array>
          </mxGeometry>
        </mxCell>
        <mxCell id="Poi-JJtiiJ44U1Zy0QEv-69" style="edgeStyle=orthogonalEdgeStyle;rounded=0;orthogonalLoop=1;jettySize=auto;html=1;" edge="1" parent="1" source="Poi-JJtiiJ44U1Zy0QEv-45">
          <mxGeometry relative="1" as="geometry">
            <mxPoint x="590" y="1040" as="targetPoint" />
            <Array as="points">
              <mxPoint x="760" y="1170" />
              <mxPoint x="590" y="1170" />
            </Array>
          </mxGeometry>
        </mxCell>
        <mxCell id="Poi-JJtiiJ44U1Zy0QEv-45" value="" style="ellipse;whiteSpace=wrap;html=1;aspect=fixed;" vertex="1" parent="1">
          <mxGeometry x="720" y="1480" width="80" height="80" as="geometry" />
        </mxCell>
        <mxCell id="Poi-JJtiiJ44U1Zy0QEv-63" style="edgeStyle=orthogonalEdgeStyle;rounded=0;orthogonalLoop=1;jettySize=auto;html=1;" edge="1" parent="1" source="Poi-JJtiiJ44U1Zy0QEv-46">
          <mxGeometry relative="1" as="geometry">
            <mxPoint x="940" y="1360" as="targetPoint" />
            <Array as="points">
              <mxPoint x="830" y="1440" />
              <mxPoint x="830" y="1360" />
            </Array>
          </mxGeometry>
        </mxCell>
        <mxCell id="Poi-JJtiiJ44U1Zy0QEv-68" style="edgeStyle=orthogonalEdgeStyle;rounded=0;orthogonalLoop=1;jettySize=auto;html=1;" edge="1" parent="1" source="Poi-JJtiiJ44U1Zy0QEv-46">
          <mxGeometry relative="1" as="geometry">
            <mxPoint x="590" y="1040" as="targetPoint" />
            <Array as="points">
              <mxPoint x="625" y="1170" />
              <mxPoint x="591" y="1170" />
              <mxPoint x="591" y="1050" />
              <mxPoint x="590" y="1050" />
            </Array>
          </mxGeometry>
        </mxCell>
        <mxCell id="Poi-JJtiiJ44U1Zy0QEv-46" value="" style="ellipse;whiteSpace=wrap;html=1;aspect=fixed;" vertex="1" parent="1">
          <mxGeometry x="585" y="1400" width="80" height="80" as="geometry" />
        </mxCell>
        <mxCell id="Poi-JJtiiJ44U1Zy0QEv-64" style="edgeStyle=orthogonalEdgeStyle;rounded=0;orthogonalLoop=1;jettySize=auto;html=1;" edge="1" parent="1" source="Poi-JJtiiJ44U1Zy0QEv-48">
          <mxGeometry relative="1" as="geometry">
            <mxPoint x="940" y="1360" as="targetPoint" />
          </mxGeometry>
        </mxCell>
        <mxCell id="Poi-JJtiiJ44U1Zy0QEv-67" style="edgeStyle=orthogonalEdgeStyle;rounded=0;orthogonalLoop=1;jettySize=auto;html=1;" edge="1" parent="1" source="Poi-JJtiiJ44U1Zy0QEv-48">
          <mxGeometry relative="1" as="geometry">
            <mxPoint x="590" y="1040" as="targetPoint" />
            <Array as="points">
              <mxPoint x="490" y="1170" />
              <mxPoint x="590" y="1170" />
            </Array>
          </mxGeometry>
        </mxCell>
        <mxCell id="Poi-JJtiiJ44U1Zy0QEv-48" value="" style="ellipse;whiteSpace=wrap;html=1;aspect=fixed;" vertex="1" parent="1">
          <mxGeometry x="450" y="1320" width="80" height="80" as="geometry" />
        </mxCell>
        <mxCell id="Poi-JJtiiJ44U1Zy0QEv-51" value="" style="endArrow=classic;html=1;rounded=0;" edge="1" parent="1">
          <mxGeometry width="50" height="50" relative="1" as="geometry">
            <mxPoint x="170" y="1280" as="sourcePoint" />
            <mxPoint x="450" y="1360" as="targetPoint" />
            <Array as="points">
              <mxPoint x="170" y="1360" />
            </Array>
          </mxGeometry>
        </mxCell>
        <mxCell id="Poi-JJtiiJ44U1Zy0QEv-52" value="" style="endArrow=classic;html=1;rounded=0;entryX=0;entryY=0.5;entryDx=0;entryDy=0;" edge="1" parent="1" target="Poi-JJtiiJ44U1Zy0QEv-46">
          <mxGeometry width="50" height="50" relative="1" as="geometry">
            <mxPoint x="170" y="1360" as="sourcePoint" />
            <mxPoint x="450" y="1440" as="targetPoint" />
            <Array as="points">
              <mxPoint x="170" y="1440" />
            </Array>
          </mxGeometry>
        </mxCell>
        <mxCell id="Poi-JJtiiJ44U1Zy0QEv-53" value="" style="endArrow=classic;html=1;rounded=0;entryX=0;entryY=0.5;entryDx=0;entryDy=0;" edge="1" parent="1" target="Poi-JJtiiJ44U1Zy0QEv-45">
          <mxGeometry width="50" height="50" relative="1" as="geometry">
            <mxPoint x="170" y="1440" as="sourcePoint" />
            <mxPoint x="590" y="1520" as="targetPoint" />
            <Array as="points">
              <mxPoint x="170" y="1480" />
              <mxPoint x="170" y="1520" />
            </Array>
          </mxGeometry>
        </mxCell>
        <mxCell id="Poi-JJtiiJ44U1Zy0QEv-54" value="" style="endArrow=classic;html=1;rounded=0;entryX=0;entryY=1;entryDx=0;entryDy=0;" edge="1" parent="1" target="Poi-JJtiiJ44U1Zy0QEv-44">
          <mxGeometry width="50" height="50" relative="1" as="geometry">
            <mxPoint x="200" y="1410" as="sourcePoint" />
            <mxPoint x="410" y="1360" as="targetPoint" />
            <Array as="points">
              <mxPoint x="200" y="1310" />
            </Array>
          </mxGeometry>
        </mxCell>
        <mxCell id="Poi-JJtiiJ44U1Zy0QEv-57" value="" style="endArrow=classic;html=1;rounded=0;entryX=0;entryY=1;entryDx=0;entryDy=0;" edge="1" parent="1">
          <mxGeometry width="50" height="50" relative="1" as="geometry">
            <mxPoint x="200" y="1410" as="sourcePoint" />
            <mxPoint x="460" y="1389" as="targetPoint" />
            <Array as="points">
              <mxPoint x="200" y="1389" />
            </Array>
          </mxGeometry>
        </mxCell>
        <mxCell id="Poi-JJtiiJ44U1Zy0QEv-58" value="" style="endArrow=classic;html=1;rounded=0;entryX=0;entryY=1;entryDx=0;entryDy=0;" edge="1" parent="1" target="Poi-JJtiiJ44U1Zy0QEv-46">
          <mxGeometry width="50" height="50" relative="1" as="geometry">
            <mxPoint x="200" y="1410" as="sourcePoint" />
            <mxPoint x="430" y="1430" as="targetPoint" />
            <Array as="points">
              <mxPoint x="200" y="1468" />
            </Array>
          </mxGeometry>
        </mxCell>
        <mxCell id="Poi-JJtiiJ44U1Zy0QEv-59" value="" style="endArrow=classic;html=1;rounded=0;entryX=0;entryY=1;entryDx=0;entryDy=0;" edge="1" parent="1" target="Poi-JJtiiJ44U1Zy0QEv-45">
          <mxGeometry width="50" height="50" relative="1" as="geometry">
            <mxPoint x="200" y="1470" as="sourcePoint" />
            <mxPoint x="618.5" y="1549" as="targetPoint" />
            <Array as="points">
              <mxPoint x="200" y="1548" />
            </Array>
          </mxGeometry>
        </mxCell>
        <mxCell id="Poi-JJtiiJ44U1Zy0QEv-61" value="" style="endArrow=none;html=1;rounded=0;" edge="1" parent="1">
          <mxGeometry width="50" height="50" relative="1" as="geometry">
            <mxPoint x="-40" y="1430" as="sourcePoint" />
            <mxPoint x="200" y="1430" as="targetPoint" />
          </mxGeometry>
        </mxCell>
      </root>
    </mxGraphModel>
  </diagram>
</mxfile>
